# Blender v2.80 (sub 75) OBJ File: ''
# www.blender.org
v 36.107670 4.469454 1.671307
v 36.107670 7.812067 1.671307
v 36.107670 4.469454 -1.671307
v 36.107670 7.812067 -1.671307
v 39.450283 4.469454 1.671307
v 39.450283 7.812067 1.671307
v 39.450283 4.469454 -1.671307
v 39.450283 7.812067 -1.671307
vn -1.0000 0.0000 0.0000
vn 0.0000 0.0000 -1.0000
vn 1.0000 0.0000 0.0000
vn 0.0000 0.0000 1.0000
vn 0.0000 -1.0000 0.0000
vn 0.0000 1.0000 0.0000
s off
f 2//1 3//1 1//1
f 4//2 7//2 3//2
f 8//3 5//3 7//3
f 6//4 1//4 5//4
f 7//5 1//5 3//5
f 4//6 6//6 8//6
f 2//1 4//1 3//1
f 4//2 8//2 7//2
f 8//3 6//3 5//3
f 6//4 2//4 1//4
f 7//5 5//5 1//5
f 4//6 2//6 6//6
v 36.107670 4.469454 -4.887857
v 36.107670 7.812067 -4.887857
v 36.107670 4.469454 -8.230471
v 36.107670 7.812067 -8.230471
v 39.450283 4.469454 -4.887857
v 39.450283 7.812067 -4.887857
v 39.450283 4.469454 -8.230471
v 39.450283 7.812067 -8.230471
vn -1.0000 0.0000 0.0000
vn 0.0000 0.0000 -1.0000
vn 1.0000 0.0000 0.0000
vn 0.0000 0.0000 1.0000
vn 0.0000 -1.0000 0.0000
vn 0.0000 1.0000 0.0000
s off
f 10//7 11//7 9//7
f 12//8 15//8 11//8
f 16//9 13//9 15//9
f 14//10 9//10 13//10
f 15//11 9//11 11//11
f 12//12 14//12 16//12
f 10//7 12//7 11//7
f 12//8 16//8 15//8
f 16//9 14//9 13//9
f 14//10 10//10 9//10
f 15//11 13//11 9//11
f 12//12 10//12 14//12
v 36.107670 4.469454 -17.739746
v 36.107670 7.812067 -17.739746
v 36.107670 4.469454 -21.082359
v 36.107670 7.812067 -21.082359
v 39.450283 4.469454 -17.739746
v 39.450283 7.812067 -17.739746
v 39.450283 4.469454 -21.082359
v 39.450283 7.812067 -21.082359
vn -1.0000 0.0000 0.0000
vn 0.0000 0.0000 -1.0000
vn 1.0000 0.0000 0.0000
vn 0.0000 0.0000 1.0000
vn 0.0000 -1.0000 0.0000
vn 0.0000 1.0000 0.0000
s off
f 18//13 19//13 17//13
f 20//14 23//14 19//14
f 24//15 21//15 23//15
f 22//16 17//16 21//16
f 23//17 17//17 19//17
f 20//18 22//18 24//18
f 18//13 20//13 19//13
f 20//14 24//14 23//14
f 24//15 22//15 21//15
f 22//16 18//16 17//16
f 23//17 21//17 17//17
f 20//18 18//18 22//18
v 36.107670 4.469454 -11.198189
v 36.107670 7.812067 -11.198189
v 36.107670 4.469454 -14.540802
v 36.107670 7.812067 -14.540802
v 39.450283 4.469454 -11.198189
v 39.450283 7.812067 -11.198189
v 39.450283 4.469454 -14.540802
v 39.450283 7.812067 -14.540802
vn -1.0000 0.0000 0.0000
vn 0.0000 0.0000 -1.0000
vn 1.0000 0.0000 0.0000
vn 0.0000 0.0000 1.0000
vn 0.0000 -1.0000 0.0000
vn 0.0000 1.0000 0.0000
s off
f 26//19 27//19 25//19
f 28//20 31//20 27//20
f 32//21 29//21 31//21
f 30//22 25//22 29//22
f 31//23 25//23 27//23
f 28//24 30//24 32//24
f 26//19 28//19 27//19
f 28//20 32//20 31//20
f 32//21 30//21 29//21
f 30//22 26//22 25//22
f 31//23 29//23 25//23
f 28//24 26//24 30//24
v 36.107670 4.469454 16.333879
v 36.107670 7.812067 16.333879
v 36.107670 4.469454 12.991266
v 36.107670 7.812067 12.991266
v 39.450283 4.469454 16.333879
v 39.450283 7.812067 16.333879
v 39.450283 4.469454 12.991266
v 39.450283 7.812067 12.991266
vn -1.0000 0.0000 0.0000
vn 0.0000 0.0000 -1.0000
vn 1.0000 0.0000 0.0000
vn 0.0000 0.0000 1.0000
vn 0.0000 -1.0000 0.0000
vn 0.0000 1.0000 0.0000
s off
f 34//25 35//25 33//25
f 36//26 39//26 35//26
f 40//27 37//27 39//27
f 38//28 33//28 37//28
f 39//29 33//29 35//29
f 36//30 38//30 40//30
f 34//25 36//25 35//25
f 36//26 40//26 39//26
f 40//27 38//27 37//27
f 38//28 34//28 33//28
f 39//29 37//29 33//29
f 36//30 34//30 38//30
v 36.107670 4.469454 28.236727
v 36.107670 7.812067 28.236727
v 36.107670 4.469454 24.894114
v 36.107670 7.812067 24.894114
v 39.450283 4.469454 28.236727
v 39.450283 7.812067 28.236727
v 39.450283 4.469454 24.894114
v 39.450283 7.812067 24.894114
vn -1.0000 0.0000 0.0000
vn 0.0000 0.0000 -1.0000
vn 1.0000 0.0000 0.0000
vn 0.0000 0.0000 1.0000
vn 0.0000 -1.0000 0.0000
vn 0.0000 1.0000 0.0000
s off
f 42//31 43//31 41//31
f 44//32 47//32 43//32
f 48//33 45//33 47//33
f 46//34 41//34 45//34
f 47//35 41//35 43//35
f 44//36 46//36 48//36
f 42//31 44//31 43//31
f 44//32 48//32 47//32
f 48//33 46//33 45//33
f 46//34 42//34 41//34
f 47//35 45//35 41//35
f 44//36 42//36 46//36
v -4.273451 4.469454 -32.042171
v -4.273451 7.812067 -32.042171
v -4.273451 4.469454 -35.384785
v -4.273451 7.812067 -35.384785
v -0.930838 4.469454 -32.042171
v -0.930838 7.812067 -32.042171
v -0.930838 4.469454 -35.384785
v -0.930838 7.812067 -35.384785
vn -1.0000 0.0000 0.0000
vn 0.0000 0.0000 -1.0000
vn 1.0000 0.0000 0.0000
vn 0.0000 0.0000 1.0000
vn 0.0000 -1.0000 0.0000
vn 0.0000 1.0000 0.0000
s off
f 50//37 51//37 49//37
f 52//38 55//38 51//38
f 56//39 53//39 55//39
f 54//40 49//40 53//40
f 55//41 49//41 51//41
f 52//42 54//42 56//42
f 50//37 52//37 51//37
f 52//38 56//38 55//38
f 56//39 54//39 53//39
f 54//40 50//40 49//40
f 55//41 53//41 49//41
f 52//42 50//42 54//42
v 6.488472 4.469454 -32.042171
v 6.488472 7.812067 -32.042171
v 6.488472 4.469454 -35.384785
v 6.488472 7.812067 -35.384785
v 9.831085 4.469454 -32.042171
v 9.831085 7.812067 -32.042171
v 9.831085 4.469454 -35.384785
v 9.831085 7.812067 -35.384785
vn -1.0000 0.0000 0.0000
vn 0.0000 0.0000 -1.0000
vn 1.0000 0.0000 0.0000
vn 0.0000 0.0000 1.0000
vn 0.0000 -1.0000 0.0000
vn 0.0000 1.0000 0.0000
s off
f 58//43 59//43 57//43
f 60//44 63//44 59//44
f 64//45 61//45 63//45
f 62//46 57//46 61//46
f 63//47 57//47 59//47
f 60//48 62//48 64//48
f 58//43 60//43 59//43
f 60//44 64//44 63//44
f 64//45 62//45 61//45
f 62//46 58//46 57//46
f 63//47 61//47 57//47
f 60//48 58//48 62//48
v 15.421825 4.469454 -32.042171
v 15.421825 7.812067 -32.042171
v 15.421825 4.469454 -35.384785
v 15.421825 7.812067 -35.384785
v 18.764439 4.469454 -32.042171
v 18.764439 7.812067 -32.042171
v 18.764439 4.469454 -35.384785
v 18.764439 7.812067 -35.384785
vn -1.0000 0.0000 0.0000
vn 0.0000 0.0000 -1.0000
vn 1.0000 0.0000 0.0000
vn 0.0000 0.0000 1.0000
vn 0.0000 -1.0000 0.0000
vn 0.0000 1.0000 0.0000
s off
f 66//49 67//49 65//49
f 68//50 71//50 67//50
f 72//51 69//51 71//51
f 70//52 65//52 69//52
f 71//53 65//53 67//53
f 68//54 70//54 72//54
f 66//49 68//49 67//49
f 68//50 72//50 71//50
f 72//51 70//51 69//51
f 70//52 66//52 65//52
f 71//53 69//53 65//53
f 68//54 66//54 70//54
v 30.834438 4.469454 -32.042171
v 30.834438 7.812067 -32.042171
v 30.834438 4.469454 -35.384785
v 30.834438 7.812067 -35.384785
v 34.177052 4.469454 -32.042171
v 34.177052 7.812067 -32.042171
v 34.177052 4.469454 -35.384785
v 34.177052 7.812067 -35.384785
vn -1.0000 0.0000 0.0000
vn 0.0000 0.0000 -1.0000
vn 1.0000 0.0000 0.0000
vn 0.0000 0.0000 1.0000
vn 0.0000 -1.0000 0.0000
vn 0.0000 1.0000 0.0000
s off
f 74//55 75//55 73//55
f 76//56 79//56 75//56
f 80//57 77//57 79//57
f 78//58 73//58 77//58
f 79//59 73//59 75//59
f 76//60 78//60 80//60
f 74//55 76//55 75//55
f 76//56 80//56 79//56
f 80//57 78//57 77//57
f 78//58 74//58 73//58
f 79//59 77//59 73//59
f 76//60 74//60 78//60
v -14.695406 4.469454 -32.042171
v -14.695406 7.812067 -32.042171
v -14.695406 4.469454 -35.384785
v -14.695406 7.812067 -35.384785
v -11.352793 4.469454 -32.042171
v -11.352793 7.812067 -32.042171
v -11.352793 4.469454 -35.384785
v -11.352793 7.812067 -35.384785
vn -1.0000 0.0000 0.0000
vn 0.0000 0.0000 -1.0000
vn 1.0000 0.0000 0.0000
vn 0.0000 0.0000 1.0000
vn 0.0000 -1.0000 0.0000
vn 0.0000 1.0000 0.0000
s off
f 82//61 83//61 81//61
f 84//62 87//62 83//62
f 88//63 85//63 87//63
f 86//64 81//64 85//64
f 87//65 81//65 83//65
f 84//66 86//66 88//66
f 82//61 84//61 83//61
f 84//62 88//62 87//62
f 88//63 86//63 85//63
f 86//64 82//64 81//64
f 87//65 85//65 81//65
f 84//66 82//66 86//66
v -25.908430 4.469454 -32.042171
v -25.908430 7.812067 -32.042171
v -25.908430 4.469454 -35.384785
v -25.908430 7.812067 -35.384785
v -22.565817 4.469454 -32.042171
v -22.565817 7.812067 -32.042171
v -22.565817 4.469454 -35.384785
v -22.565817 7.812067 -35.384785
vn -1.0000 0.0000 0.0000
vn 0.0000 0.0000 -1.0000
vn 1.0000 0.0000 0.0000
vn 0.0000 0.0000 1.0000
vn 0.0000 -1.0000 0.0000
vn 0.0000 1.0000 0.0000
s off
f 90//67 91//67 89//67
f 92//68 95//68 91//68
f 96//69 93//69 95//69
f 94//70 89//70 93//70
f 95//71 89//71 91//71
f 92//72 94//72 96//72
f 90//67 92//67 91//67
f 92//68 96//68 95//68
f 96//69 94//69 93//69
f 94//70 90//70 89//70
f 95//71 93//71 89//71
f 92//72 90//72 94//72
v -67.765457 2.740680 72.144485
v 73.535950 2.740680 72.144485
v -67.765457 2.740680 -69.156921
v 73.535950 2.740680 -69.156921
v -36.904358 2.740680 41.283390
v 42.674850 2.740680 41.283390
v -36.904358 2.740680 -38.295818
v 42.674850 2.740680 -38.295818
vn 0.0000 1.0000 0.0000
s off
f 97//73 103//73 99//73
f 99//73 104//73 100//73
f 98//73 101//73 97//73
f 100//73 102//73 98//73
f 97//73 101//73 103//73
f 99//73 103//73 104//73
f 98//73 102//73 101//73
f 100//73 104//73 102//73
v -33.500854 4.469454 1.671307
v -33.500854 7.812067 1.671307
v -33.500854 4.469454 -1.671307
v -33.500854 7.812067 -1.671307
v -30.158241 4.469454 1.671307
v -30.158241 7.812067 1.671307
v -30.158241 4.469454 -1.671307
v -30.158241 7.812067 -1.671307
vn -1.0000 0.0000 0.0000
vn 0.0000 0.0000 -1.0000
vn 1.0000 0.0000 0.0000
vn 0.0000 0.0000 1.0000
vn 0.0000 -1.0000 0.0000
vn 0.0000 1.0000 0.0000
s off
f 106//74 107//74 105//74
f 108//75 111//75 107//75
f 112//76 109//76 111//76
f 110//77 105//77 109//77
f 111//78 105//78 107//78
f 108//79 110//79 112//79
f 106//74 108//74 107//74
f 108//75 112//75 111//75
f 112//76 110//76 109//76
f 110//77 106//77 105//77
f 111//78 109//78 105//78
f 108//79 106//79 110//79
v -33.500854 4.469454 -4.887857
v -33.500854 7.812067 -4.887857
v -33.500854 4.469454 -8.230471
v -33.500854 7.812067 -8.230471
v -30.158241 4.469454 -4.887857
v -30.158241 7.812067 -4.887857
v -30.158241 4.469454 -8.230471
v -30.158241 7.812067 -8.230471
vn -1.0000 0.0000 0.0000
vn 0.0000 0.0000 -1.0000
vn 1.0000 0.0000 0.0000
vn 0.0000 0.0000 1.0000
vn 0.0000 -1.0000 0.0000
vn 0.0000 1.0000 0.0000
s off
f 114//80 115//80 113//80
f 116//81 119//81 115//81
f 120//82 117//82 119//82
f 118//83 113//83 117//83
f 119//84 113//84 115//84
f 116//85 118//85 120//85
f 114//80 116//80 115//80
f 116//81 120//81 119//81
f 120//82 118//82 117//82
f 118//83 114//83 113//83
f 119//84 117//84 113//84
f 116//85 114//85 118//85
v -33.500854 4.469454 -17.739746
v -33.500854 7.812067 -17.739746
v -33.500854 4.469454 -21.082359
v -33.500854 7.812067 -21.082359
v -30.158241 4.469454 -17.739746
v -30.158241 7.812067 -17.739746
v -30.158241 4.469454 -21.082359
v -30.158241 7.812067 -21.082359
vn -1.0000 0.0000 0.0000
vn 0.0000 0.0000 -1.0000
vn 1.0000 0.0000 0.0000
vn 0.0000 0.0000 1.0000
vn 0.0000 -1.0000 0.0000
vn 0.0000 1.0000 0.0000
s off
f 122//86 123//86 121//86
f 124//87 127//87 123//87
f 128//88 125//88 127//88
f 126//89 121//89 125//89
f 127//90 121//90 123//90
f 124//91 126//91 128//91
f 122//86 124//86 123//86
f 124//87 128//87 127//87
f 128//88 126//88 125//88
f 126//89 122//89 121//89
f 127//90 125//90 121//90
f 124//91 122//91 126//91
v -33.500854 4.469454 -11.198189
v -33.500854 7.812067 -11.198189
v -33.500854 4.469454 -14.540802
v -33.500854 7.812067 -14.540802
v -30.158241 4.469454 -11.198189
v -30.158241 7.812067 -11.198189
v -30.158241 4.469454 -14.540802
v -30.158241 7.812067 -14.540802
vn -1.0000 0.0000 0.0000
vn 0.0000 0.0000 -1.0000
vn 1.0000 0.0000 0.0000
vn 0.0000 0.0000 1.0000
vn 0.0000 -1.0000 0.0000
vn 0.0000 1.0000 0.0000
s off
f 130//92 131//92 129//92
f 132//93 135//93 131//93
f 136//94 133//94 135//94
f 134//95 129//95 133//95
f 135//96 129//96 131//96
f 132//97 134//97 136//97
f 130//92 132//92 131//92
f 132//93 136//93 135//93
f 136//94 134//94 133//94
f 134//95 130//95 129//95
f 135//96 133//96 129//96
f 132//97 130//97 134//97
v -33.500854 4.469454 16.333879
v -33.500854 7.812067 16.333879
v -33.500854 4.469454 12.991266
v -33.500854 7.812067 12.991266
v -30.158241 4.469454 16.333879
v -30.158241 7.812067 16.333879
v -30.158241 4.469454 12.991266
v -30.158241 7.812067 12.991266
vn -1.0000 0.0000 0.0000
vn 0.0000 0.0000 -1.0000
vn 1.0000 0.0000 0.0000
vn 0.0000 0.0000 1.0000
vn 0.0000 -1.0000 0.0000
vn 0.0000 1.0000 0.0000
s off
f 138//98 139//98 137//98
f 140//99 143//99 139//99
f 144//100 141//100 143//100
f 142//101 137//101 141//101
f 143//102 137//102 139//102
f 140//103 142//103 144//103
f 138//98 140//98 139//98
f 140//99 144//99 143//99
f 144//100 142//100 141//100
f 142//101 138//101 137//101
f 143//102 141//102 137//102
f 140//103 138//103 142//103
v -33.500854 4.469454 28.236727
v -33.500854 7.812067 28.236727
v -33.500854 4.469454 24.894114
v -33.500854 7.812067 24.894114
v -30.158241 4.469454 28.236727
v -30.158241 7.812067 28.236727
v -30.158241 4.469454 24.894114
v -30.158241 7.812067 24.894114
vn -1.0000 0.0000 0.0000
vn 0.0000 0.0000 -1.0000
vn 1.0000 0.0000 0.0000
vn 0.0000 0.0000 1.0000
vn 0.0000 -1.0000 0.0000
vn 0.0000 1.0000 0.0000
s off
f 146//104 147//104 145//104
f 148//105 151//105 147//105
f 152//106 149//106 151//106
f 150//107 145//107 149//107
f 151//108 145//108 147//108
f 148//109 150//109 152//109
f 146//104 148//104 147//104
f 148//105 152//105 151//105
f 152//106 150//106 149//106
f 150//107 146//107 145//107
f 151//108 149//108 145//108
f 148//109 146//109 150//109
v -4.273451 4.469454 35.468197
v -4.273451 7.812067 35.468197
v -4.273451 4.469454 32.125584
v -4.273451 7.812067 32.125584
v -0.930838 4.469454 35.468197
v -0.930838 7.812067 35.468197
v -0.930838 4.469454 32.125584
v -0.930838 7.812067 32.125584
vn -1.0000 0.0000 0.0000
vn 0.0000 0.0000 -1.0000
vn 1.0000 0.0000 0.0000
vn 0.0000 0.0000 1.0000
vn 0.0000 -1.0000 0.0000
vn 0.0000 1.0000 0.0000
s off
f 154//110 155//110 153//110
f 156//111 159//111 155//111
f 160//112 157//112 159//112
f 158//113 153//113 157//113
f 159//114 153//114 155//114
f 156//115 158//115 160//115
f 154//110 156//110 155//110
f 156//111 160//111 159//111
f 160//112 158//112 157//112
f 158//113 154//113 153//113
f 159//114 157//114 153//114
f 156//115 154//115 158//115
v 6.488472 4.469454 35.468197
v 6.488472 7.812067 35.468197
v 6.488472 4.469454 32.125584
v 6.488472 7.812067 32.125584
v 9.831085 4.469454 35.468197
v 9.831085 7.812067 35.468197
v 9.831085 4.469454 32.125584
v 9.831085 7.812067 32.125584
vn -1.0000 0.0000 0.0000
vn 0.0000 0.0000 -1.0000
vn 1.0000 0.0000 0.0000
vn 0.0000 0.0000 1.0000
vn 0.0000 -1.0000 0.0000
vn 0.0000 1.0000 0.0000
s off
f 162//116 163//116 161//116
f 164//117 167//117 163//117
f 168//118 165//118 167//118
f 166//119 161//119 165//119
f 167//120 161//120 163//120
f 164//121 166//121 168//121
f 162//116 164//116 163//116
f 164//117 168//117 167//117
f 168//118 166//118 165//118
f 166//119 162//119 161//119
f 167//120 165//120 161//120
f 164//121 162//121 166//121
v 15.421825 4.469454 35.468197
v 15.421825 7.812067 35.468197
v 15.421825 4.469454 32.125584
v 15.421825 7.812067 32.125584
v 18.764439 4.469454 35.468197
v 18.764439 7.812067 35.468197
v 18.764439 4.469454 32.125584
v 18.764439 7.812067 32.125584
vn -1.0000 0.0000 0.0000
vn 0.0000 0.0000 -1.0000
vn 1.0000 0.0000 0.0000
vn 0.0000 0.0000 1.0000
vn 0.0000 -1.0000 0.0000
vn 0.0000 1.0000 0.0000
s off
f 170//122 171//122 169//122
f 172//123 175//123 171//123
f 176//124 173//124 175//124
f 174//125 169//125 173//125
f 175//126 169//126 171//126
f 172//127 174//127 176//127
f 170//122 172//122 171//122
f 172//123 176//123 175//123
f 176//124 174//124 173//124
f 174//125 170//125 169//125
f 175//126 173//126 169//126
f 172//127 170//127 174//127
v 30.834438 4.469454 35.468197
v 30.834438 7.812067 35.468197
v 30.834438 4.469454 32.125584
v 30.834438 7.812067 32.125584
v 34.177052 4.469454 35.468197
v 34.177052 7.812067 35.468197
v 34.177052 4.469454 32.125584
v 34.177052 7.812067 32.125584
vn -1.0000 0.0000 0.0000
vn 0.0000 0.0000 -1.0000
vn 1.0000 0.0000 0.0000
vn 0.0000 0.0000 1.0000
vn 0.0000 -1.0000 0.0000
vn 0.0000 1.0000 0.0000
s off
f 178//128 179//128 177//128
f 180//129 183//129 179//129
f 184//130 181//130 183//130
f 182//131 177//131 181//131
f 183//132 177//132 179//132
f 180//133 182//133 184//133
f 178//128 180//128 179//128
f 180//129 184//129 183//129
f 184//130 182//130 181//130
f 182//131 178//131 177//131
f 183//132 181//132 177//132
f 180//133 178//133 182//133
v -14.695406 4.469454 35.468197
v -14.695406 7.812067 35.468197
v -14.695406 4.469454 32.125584
v -14.695406 7.812067 32.125584
v -11.352793 4.469454 35.468197
v -11.352793 7.812067 35.468197
v -11.352793 4.469454 32.125584
v -11.352793 7.812067 32.125584
vn -1.0000 0.0000 0.0000
vn 0.0000 0.0000 -1.0000
vn 1.0000 0.0000 0.0000
vn 0.0000 0.0000 1.0000
vn 0.0000 -1.0000 0.0000
vn 0.0000 1.0000 0.0000
s off
f 186//134 187//134 185//134
f 188//135 191//135 187//135
f 192//136 189//136 191//136
f 190//137 185//137 189//137
f 191//138 185//138 187//138
f 188//139 190//139 192//139
f 186//134 188//134 187//134
f 188//135 192//135 191//135
f 192//136 190//136 189//136
f 190//137 186//137 185//137
f 191//138 189//138 185//138
f 188//139 186//139 190//139
v -25.908430 4.469454 35.468197
v -25.908430 7.812067 35.468197
v -25.908430 4.469454 32.125584
v -25.908430 7.812067 32.125584
v -22.565817 4.469454 35.468197
v -22.565817 7.812067 35.468197
v -22.565817 4.469454 32.125584
v -22.565817 7.812067 32.125584
vn -1.0000 0.0000 0.0000
vn 0.0000 0.0000 -1.0000
vn 1.0000 0.0000 0.0000
vn 0.0000 0.0000 1.0000
vn 0.0000 -1.0000 0.0000
vn 0.0000 1.0000 0.0000
s off
f 194//140 195//140 193//140
f 196//141 199//141 195//141
f 200//142 197//142 199//142
f 198//143 193//143 197//143
f 199//144 193//144 195//144
f 196//145 198//145 200//145
f 194//140 196//140 195//140
f 196//141 200//141 199//141
f 200//142 198//142 197//142
f 198//143 194//143 193//143
f 199//144 197//144 193//144
f 196//145 194//145 198//145
v -25.908430 4.469454 35.468197
v -25.908430 7.812067 35.468197
v -25.908430 4.469454 32.125584
v -25.908430 7.812067 32.125584
v -22.565817 4.469454 35.468197
v -22.565817 7.812067 35.468197
v -22.565817 4.469454 32.125584
v -22.565817 7.812067 32.125584
vn -1.0000 0.0000 0.0000
vn 0.0000 0.0000 -1.0000
vn 1.0000 0.0000 0.0000
vn 0.0000 0.0000 1.0000
vn 0.0000 -1.0000 0.0000
vn 0.0000 1.0000 0.0000
s off
f 202//146 203//146 201//146
f 204//147 207//147 203//147
f 208//148 205//148 207//148
f 206//149 201//149 205//149
f 207//150 201//150 203//150
f 204//151 206//151 208//151
f 202//146 204//146 203//146
f 204//147 208//147 207//147
f 208//148 206//148 205//148
f 206//149 202//149 201//149
f 207//150 205//150 201//150
f 204//151 202//151 206//151
