# Blender v2.81 (sub 16) OBJ File: ''
# www.blender.org
o Cube
v -6.720221 -1.326849 -17.951168
v -6.720221 -1.992297 -17.951168
v -6.720221 -1.326849 -15.951168
v -6.720221 -1.992297 -15.951168
v -8.720221 -1.326849 -17.951168
v -8.720221 -1.992297 -17.951168
v -8.720221 -1.326849 -15.951168
v -8.720221 -1.992297 -15.951168
vn 0.0000 1.0000 0.0000
vn 0.0000 0.0000 1.0000
vn -1.0000 0.0000 0.0000
vn 0.0000 -1.0000 0.0000
vn 1.0000 0.0000 0.0000
vn 0.0000 0.0000 -1.0000
s off
f 5//1 3//1 1//1
f 3//2 8//2 4//2
f 7//3 6//3 8//3
f 2//4 8//4 6//4
f 1//5 4//5 2//5
f 5//6 2//6 6//6
f 5//1 7//1 3//1
f 3//2 7//2 8//2
f 7//3 5//3 6//3
f 2//4 4//4 8//4
f 1//5 3//5 4//5
f 5//6 1//6 2//6
o Cube.001
v 4.948845 -1.326849 -6.301651
v 4.948845 -1.992297 -6.301651
v 4.948845 -1.326849 -4.301651
v 4.948845 -1.992297 -4.301651
v 2.948845 -1.326849 -6.301651
v 2.948845 -1.992297 -6.301651
v 2.948845 -1.326849 -4.301651
v 2.948845 -1.992297 -4.301651
vn 0.0000 1.0000 0.0000
vn 0.0000 0.0000 1.0000
vn -1.0000 0.0000 0.0000
vn 0.0000 -1.0000 0.0000
vn 1.0000 0.0000 0.0000
vn 0.0000 0.0000 -1.0000
s off
f 13//7 11//7 9//7
f 11//8 16//8 12//8
f 15//9 14//9 16//9
f 10//10 16//10 14//10
f 9//11 12//11 10//11
f 13//12 10//12 14//12
f 13//7 15//7 11//7
f 11//8 15//8 16//8
f 15//9 13//9 14//9
f 10//10 12//10 16//10
f 9//11 11//11 12//11
f 13//12 9//12 10//12
o Cube.002
v 0.163858 -1.326849 -11.659790
v 0.163858 -1.992297 -11.659790
v 0.163858 -1.326849 -9.659790
v 0.163858 -1.992297 -9.659790
v -1.836142 -1.326849 -11.659790
v -1.836142 -1.992297 -11.659790
v -1.836142 -1.326849 -9.659790
v -1.836142 -1.992297 -9.659790
vn 0.0000 1.0000 0.0000
vn 0.0000 0.0000 1.0000
vn -1.0000 0.0000 0.0000
vn 0.0000 -1.0000 0.0000
vn 1.0000 0.0000 0.0000
vn 0.0000 0.0000 -1.0000
s off
f 21//13 19//13 17//13
f 19//14 24//14 20//14
f 23//15 22//15 24//15
f 18//16 24//16 22//16
f 17//17 20//17 18//17
f 21//18 18//18 22//18
f 21//13 23//13 19//13
f 19//14 23//14 24//14
f 23//15 21//15 22//15
f 18//16 20//16 24//16
f 17//17 19//17 20//17
f 21//18 17//18 18//18
o Cube.003
v 1.000000 -1.326849 -1.000000
v 1.000000 -1.992297 -1.000000
v 1.000000 -1.326849 1.000000
v 1.000000 -1.992297 1.000000
v -1.000000 -1.326849 -1.000000
v -1.000000 -1.992297 -1.000000
v -1.000000 -1.326849 1.000000
v -1.000000 -1.992297 1.000000
vn 0.0000 1.0000 0.0000
vn 0.0000 0.0000 1.0000
vn -1.0000 0.0000 0.0000
vn 0.0000 -1.0000 0.0000
vn 1.0000 0.0000 0.0000
vn 0.0000 0.0000 -1.0000
s off
f 29//19 27//19 25//19
f 27//20 32//20 28//20
f 31//21 30//21 32//21
f 26//22 32//22 30//22
f 25//23 28//23 26//23
f 29//24 26//24 30//24
f 29//19 31//19 27//19
f 27//20 31//20 32//20
f 31//21 29//21 30//21
f 26//22 28//22 32//22
f 25//23 27//23 28//23
f 29//24 25//24 26//24
o Cube.004
v -14.476077 -1.326849 -17.951168
v -14.476077 -1.992297 -17.951168
v -14.476077 -1.326849 -15.951168
v -14.476077 -1.992297 -15.951168
v -16.476078 -1.326849 -17.951168
v -16.476078 -1.992297 -17.951168
v -16.476078 -1.326849 -15.951168
v -16.476078 -1.992297 -15.951168
vn 0.0000 1.0000 0.0000
vn 0.0000 0.0000 1.0000
vn -1.0000 0.0000 0.0000
vn 0.0000 -1.0000 0.0000
vn 1.0000 0.0000 0.0000
vn 0.0000 0.0000 -1.0000
s off
f 37//25 35//25 33//25
f 35//26 40//26 36//26
f 39//27 38//27 40//27
f 34//28 40//28 38//28
f 33//29 36//29 34//29
f 37//30 34//30 38//30
f 37//25 39//25 35//25
f 35//26 39//26 40//26
f 39//27 37//27 38//27
f 34//28 36//28 40//28
f 33//29 35//29 36//29
f 37//30 33//30 34//30
o Cube.005
v -21.068859 -1.326849 -9.911146
v -21.068859 -1.992297 -9.911146
v -21.068859 -1.326849 -7.911146
v -21.068859 -1.992297 -7.911146
v -23.068859 -1.326849 -9.911146
v -23.068859 -1.992297 -9.911146
v -23.068859 -1.326849 -7.911146
v -23.068859 -1.992297 -7.911146
vn 0.0000 1.0000 0.0000
vn 0.0000 0.0000 1.0000
vn -1.0000 0.0000 0.0000
vn 0.0000 -1.0000 0.0000
vn 1.0000 0.0000 0.0000
vn 0.0000 0.0000 -1.0000
s off
f 45//31 43//31 41//31
f 43//32 48//32 44//32
f 47//33 46//33 48//33
f 42//34 48//34 46//34
f 41//35 44//35 42//35
f 45//36 42//36 46//36
f 45//31 47//31 43//31
f 43//32 47//32 48//32
f 47//33 45//33 46//33
f 42//34 44//34 48//34
f 41//35 43//35 44//35
f 45//36 41//36 42//36
o Cube.006
v -25.929159 -1.326849 1.344044
v -25.929159 -1.992297 1.344044
v -25.929159 -1.326849 3.344044
v -25.929159 -1.992297 3.344044
v -27.929159 -1.326849 1.344044
v -27.929159 -1.992297 1.344044
v -27.929159 -1.326849 3.344044
v -27.929159 -1.992297 3.344044
vn 0.0000 1.0000 0.0000
vn 0.0000 0.0000 1.0000
vn -1.0000 0.0000 0.0000
vn 0.0000 -1.0000 0.0000
vn 1.0000 0.0000 0.0000
vn 0.0000 0.0000 -1.0000
s off
f 53//37 51//37 49//37
f 51//38 56//38 52//38
f 55//39 54//39 56//39
f 50//40 56//40 54//40
f 49//41 52//41 50//41
f 53//42 50//42 54//42
f 53//37 55//37 51//37
f 51//38 55//38 56//38
f 55//39 53//39 54//39
f 50//40 52//40 56//40
f 49//41 51//41 52//41
f 53//42 49//42 50//42
o Cube.007
v -23.865849 -1.326849 15.950039
v -23.865849 -1.992297 15.950039
v -23.865849 -1.326849 17.950039
v -23.865849 -1.992297 17.950039
v -25.865849 -1.326849 15.950039
v -25.865849 -1.992297 15.950039
v -25.865849 -1.326849 17.950039
v -25.865849 -1.992297 17.950039
vn 0.0000 1.0000 0.0000
vn 0.0000 0.0000 1.0000
vn -1.0000 0.0000 0.0000
vn 0.0000 -1.0000 0.0000
vn 1.0000 0.0000 0.0000
vn 0.0000 0.0000 -1.0000
s off
f 61//43 59//43 57//43
f 59//44 64//44 60//44
f 63//45 62//45 64//45
f 58//46 64//46 62//46
f 57//47 60//47 58//47
f 61//48 58//48 62//48
f 61//43 63//43 59//43
f 59//44 63//44 64//44
f 63//45 61//45 62//45
f 58//46 60//46 64//46
f 57//47 59//47 60//47
f 61//48 57//48 58//48
o Cube.008
v -14.314544 -1.326849 12.755334
v -14.314544 -1.992297 12.755334
v -14.314544 -1.326849 14.755334
v -14.314544 -1.992297 14.755334
v -16.314545 -1.326849 12.755334
v -16.314545 -1.992297 12.755334
v -16.314545 -1.326849 14.755334
v -16.314545 -1.992297 14.755334
vn 0.0000 1.0000 0.0000
vn 0.0000 0.0000 1.0000
vn -1.0000 0.0000 0.0000
vn 0.0000 -1.0000 0.0000
vn 1.0000 0.0000 0.0000
vn 0.0000 0.0000 -1.0000
s off
f 69//49 67//49 65//49
f 67//50 72//50 68//50
f 71//51 70//51 72//51
f 66//52 72//52 70//52
f 65//53 68//53 66//53
f 69//54 66//54 70//54
f 69//49 71//49 67//49
f 67//50 71//50 72//50
f 71//51 69//51 70//51
f 66//52 68//52 72//52
f 65//53 67//53 68//53
f 69//54 65//54 66//54
o Cube.009
v -6.315404 -1.326849 9.148616
v -6.315404 -1.992297 9.148616
v -6.315404 -1.326849 11.148616
v -6.315404 -1.992297 11.148616
v -8.315404 -1.326849 9.148616
v -8.315404 -1.992297 9.148616
v -8.315404 -1.326849 11.148616
v -8.315404 -1.992297 11.148616
vn 0.0000 1.0000 0.0000
vn 0.0000 0.0000 1.0000
vn -1.0000 0.0000 0.0000
vn 0.0000 -1.0000 0.0000
vn 1.0000 0.0000 0.0000
vn 0.0000 0.0000 -1.0000
s off
f 77//55 75//55 73//55
f 75//56 80//56 76//56
f 79//57 78//57 80//57
f 74//58 80//58 78//58
f 73//59 76//59 74//59
f 77//60 74//60 78//60
f 77//55 79//55 75//55
f 75//56 79//56 80//56
f 79//57 77//57 78//57
f 74//58 76//58 80//58
f 73//59 75//59 76//59
f 77//60 73//60 74//60
o Cube.010
v -1.884060 -1.326849 4.348484
v -1.884060 -1.992297 4.348484
v -1.884060 -1.326849 6.348484
v -1.884060 -1.992297 6.348484
v -3.884060 -1.326849 4.348484
v -3.884060 -1.992297 4.348484
v -3.884060 -1.326849 6.348484
v -3.884060 -1.992297 6.348484
vn 0.0000 1.0000 0.0000
vn 0.0000 0.0000 1.0000
vn -1.0000 0.0000 0.0000
vn 0.0000 -1.0000 0.0000
vn 1.0000 0.0000 0.0000
vn 0.0000 0.0000 -1.0000
s off
f 85//61 83//61 81//61
f 83//62 88//62 84//62
f 87//63 86//63 88//63
f 82//64 88//64 86//64
f 81//65 84//65 82//65
f 85//66 82//66 86//66
f 85//61 87//61 83//61
f 83//62 87//62 88//62
f 87//63 85//63 86//63
f 82//64 84//64 88//64
f 81//65 83//65 84//65
f 85//66 81//66 82//66
