# Blender v2.80 (sub 75) OBJ File: ''
# www.blender.org
v 10.241303 -5.534942 -10.241303
v -10.241303 -5.534942 -10.241303
v 10.241303 -5.534942 10.241303
v -10.241303 -5.534942 10.241303
v 10.241303 7.000874 -10.241303
v 10.241303 7.000874 10.241303
v -10.139159 7.000874 -10.241303
v -10.139159 7.000874 10.241303
v 10.241303 -1.009006 2.846255
v 10.241303 -1.009006 -2.846255
v 10.241303 2.474937 2.846255
v 10.241303 2.474937 -2.846255
v 6.984819 -1.009006 2.846255
v 6.984819 -1.009006 -2.846255
v 6.984819 -4.593796 2.846255
v 6.984819 -4.593796 -2.846255
v 7.037119 -5.534942 3.125521
v 7.037119 -5.534942 -3.125521
v 0.786077 -5.534942 -3.125521
v 0.786077 -5.534942 3.125521
vn 0.0000 1.0000 0.0000
vn 0.0000 -1.0000 0.0000
vn -1.0000 0.0000 0.0000
vn 0.9985 0.0555 0.0000
vn -0.9095 0.0710 0.4096
vn 0.0000 0.8529 0.5220
vn -0.9152 0.0000 0.4030
vn 0.0000 0.8529 -0.5220
vn -0.9152 0.0000 -0.4030
vn -0.9095 0.0710 -0.4096
s off
f 4//1 19//1 2//1
f 6//2 7//2 5//2
f 9//3 12//3 10//3
f 1//3 12//3 5//3
f 6//3 9//3 3//3
f 5//3 11//3 6//3
f 10//1 13//1 9//1
f 14//3 15//3 13//3
f 19//1 17//1 18//1
f 3//1 20//1 4//1
f 1//1 19//1 18//1
f 17//4 16//4 15//4
f 17//5 3//5 15//5
f 3//6 9//6 13//6
f 15//7 3//7 13//7
f 10//8 1//8 14//8
f 14//9 1//9 16//9
f 16//10 1//10 18//10
f 4//1 20//1 19//1
f 6//2 8//2 7//2
f 9//3 11//3 12//3
f 1//3 10//3 12//3
f 6//3 11//3 9//3
f 5//3 12//3 11//3
f 10//1 14//1 13//1
f 14//3 16//3 15//3
f 19//1 20//1 17//1
f 3//1 17//1 20//1
f 1//1 2//1 19//1
f 17//4 18//4 16//4
v 4.004855 -1.297257 -1.000000
v 4.004855 -0.603611 -1.000000
v 4.004855 -1.297257 1.000000
v 4.004855 -0.603611 1.000000
v 2.004855 -1.297257 -1.000000
v 2.004855 -0.603611 -1.000000
v 2.004855 -1.297257 1.000000
v 2.004855 -0.603611 1.000000
vn 1.0000 0.0000 0.0000
vn 0.0000 0.0000 1.0000
vn -1.0000 0.0000 0.0000
vn 0.0000 0.0000 -1.0000
vn 0.0000 -1.0000 0.0000
vn 0.0000 1.0000 0.0000
s off
f 22//11 23//11 21//11
f 24//12 27//12 23//12
f 28//13 25//13 27//13
f 26//14 21//14 25//14
f 27//15 21//15 23//15
f 24//16 26//16 28//16
f 22//11 24//11 23//11
f 24//12 28//12 27//12
f 28//13 26//13 25//13
f 26//14 22//14 21//14
f 27//15 25//15 21//15
f 24//16 22//16 26//16
v -0.349518 -1.846321 -1.000000
v -0.349518 -1.152674 -1.000000
v -0.349518 -1.846321 1.000000
v -0.349518 -1.152674 1.000000
v -2.349518 -1.846321 -1.000000
v -2.349518 -1.152674 -1.000000
v -2.349518 -1.846321 1.000000
v -2.349518 -1.152674 1.000000
vn 1.0000 0.0000 0.0000
vn 0.0000 0.0000 1.0000
vn -1.0000 0.0000 0.0000
vn 0.0000 0.0000 -1.0000
vn 0.0000 -1.0000 0.0000
vn 0.0000 1.0000 0.0000
s off
f 30//17 31//17 29//17
f 32//18 35//18 31//18
f 36//19 33//19 35//19
f 34//20 29//20 33//20
f 35//21 29//21 31//21
f 32//22 34//22 36//22
f 30//17 32//17 31//17
f 32//18 36//18 35//18
f 36//19 34//19 33//19
f 34//20 30//20 29//20
f 35//21 33//21 29//21
f 32//22 30//22 34//22
v -0.333336 -3.518443 4.074025
v -0.333336 -2.824796 4.074025
v -0.333336 -3.518443 6.074025
v -0.333336 -2.824796 6.074025
v -2.333336 -3.518443 4.074025
v -2.333336 -2.824796 4.074025
v -2.333336 -3.518443 6.074025
v -2.333336 -2.824796 6.074025
vn 1.0000 0.0000 0.0000
vn 0.0000 0.0000 1.0000
vn -1.0000 0.0000 0.0000
vn 0.0000 0.0000 -1.0000
vn 0.0000 -1.0000 0.0000
vn 0.0000 1.0000 0.0000
s off
f 38//23 39//23 37//23
f 40//24 43//24 39//24
f 44//25 41//25 43//25
f 42//26 37//26 41//26
f 43//27 37//27 39//27
f 40//28 42//28 44//28
f 38//23 40//23 39//23
f 40//24 44//24 43//24
f 44//25 42//25 41//25
f 42//26 38//26 37//26
f 43//27 41//27 37//27
f 40//28 38//28 42//28
v -4.193953 -3.851769 -1.000000
v -4.193953 -3.158123 -1.000000
v -4.193953 -3.851769 1.000000
v -4.193953 -3.158123 1.000000
v -6.193953 -3.851769 -1.000000
v -6.193953 -3.158123 -1.000000
v -6.193953 -3.851769 1.000000
v -6.193953 -3.158123 1.000000
vn 1.0000 0.0000 0.0000
vn 0.0000 0.0000 1.0000
vn -1.0000 0.0000 0.0000
vn 0.0000 0.0000 -1.0000
vn 0.0000 -1.0000 0.0000
vn 0.0000 1.0000 0.0000
s off
f 46//29 47//29 45//29
f 48//30 51//30 47//30
f 52//31 49//31 51//31
f 50//32 45//32 49//32
f 51//33 45//33 47//33
f 48//34 50//34 52//34
f 46//29 48//29 47//29
f 48//30 52//30 51//30
f 52//31 50//31 49//31
f 50//32 46//32 45//32
f 51//33 49//33 45//33
f 48//34 46//34 50//34
